<?xml version="1.0" encoding="utf-8"?>
<!-- Svg Vector Icons : http://www.onlinewebfonts.com/icon -->
<!DOCTYPE svg PUBLIC "-//W3C//DTD SVG 1.1//EN" "http://www.w3.org/Graphics/SVG/1.1/DTD/svg11.dtd">
<svg version="1.1" xmlns="http://www.w3.org/2000/svg" xmlns:xlink="http://www.w3.org/1999/xlink" x="0px" y="0px" viewBox="0 0 1000 1000" enable-background="new 0 0 1000 1000" xml:space="preserve">
<metadata> Svg Vector Icons : http://www.onlinewebfonts.com/icon </metadata>
<g><path d="M366.9,990c-4.8,0-9.6-1.1-14.1-3.4c-10.3-5.3-16.8-15.9-16.8-27.5V802.6H162.8c-71.5,0-129.6-58.1-129.6-129.6V139.6C33.2,68.1,91.3,10,162.8,10h674.4c71.5,0,129.6,58.1,129.6,129.6V673c0,71.5-58.1,129.6-129.6,129.6H637.9l-253,181.6C379.5,988,373.2,990,366.9,990z M162.8,71.7c-37.4,0-67.9,30.5-67.9,67.9V673c0,37.4,30.5,67.9,67.9,67.9h204.1c17,0,30.9,13.8,30.9,30.9V899l212.2-152.3c5.2-3.8,11.5-5.8,18-5.8h209.3c37.4,0,67.9-30.5,67.9-67.9V139.6c0-37.4-30.5-67.9-67.9-67.9H162.8z"/><path d="M747.3,285.8H252.7c-17,0-30.9-13.8-30.9-30.9c0-17,13.8-30.9,30.9-30.9h494.5c17,0,30.9,13.8,30.9,30.9C778.1,272,764.3,285.8,747.3,285.8z"/><path d="M747.3,434H252.7c-17,0-30.9-13.8-30.9-30.9c0-17,13.8-30.9,30.9-30.9h494.5c17,0,30.9,13.8,30.9,30.9C778.1,420.1,764.3,434,747.3,434z"/><path d="M747.3,582.1H252.7c-17,0-30.9-13.8-30.9-30.9s13.8-30.9,30.9-30.9h494.5c17,0,30.9,13.8,30.9,30.9C778.1,568.3,764.3,582.1,747.3,582.1z"/></g>
</svg>