<?xml version="1.0" encoding="utf-8"?>
<!-- Svg Vector Icons : http://www.onlinewebfonts.com/icon -->
<!DOCTYPE svg PUBLIC "-//W3C//DTD SVG 1.1//EN" "http://www.w3.org/Graphics/SVG/1.1/DTD/svg11.dtd">
<svg version="1.1" xmlns="http://www.w3.org/2000/svg" xmlns:xlink="http://www.w3.org/1999/xlink" x="0px" y="0px" viewBox="0 0 1000 1000" enable-background="new 0 0 1000 1000" xml:space="preserve">
<metadata> Svg Vector Icons : http://www.onlinewebfonts.com/icon </metadata>
<g><g transform="translate(0.000000,511.000000) scale(0.100000,-0.100000)"><path d="M955.4,3365.1c-359.9-53.6-664.3-308.2-804.1-679.7l-44-112.9l-5.7-2410.4c-3.8-2117.4-1.9-2423.8,24.9-2527.2c90-356.1,327.4-614.6,689.2-744.7l114.9-42.1l3982.2-5.7c2674.6-3.8,4026.2,1.9,4116.2,15.3c302.5,44,624.1,273.8,752.4,538c124.4,254.6,118.7,114.9,118.7,2716.7c0,2594.2,5.7,2464-114.9,2709c-113,229.7-317.8,409.7-582,505.4l-135.9,49.8l-4001.3,1.9C2866.1,3380.4,1014.7,3374.6,955.4,3365.1z M9103.5,2924.7c231.7-86.2,369.5-296.7,388.6-591.6l11.5-172.3H4998.8H494l9.6,170.4c17.2,287.2,158.9,505.4,384.8,593.5c97.6,38.3,143.6,38.3,4104.7,38.3C8992.5,2964.9,8998.2,2964.9,9103.5,2924.7z M9478.8,1337.6v-402H4998.8h-4480v402v402h4480h4479.9V1337.6z M9494.1-877.5l-5.7-1393.7l-49.8-107.2c-63.2-132.1-170.4-243.1-296.7-306.3l-93.8-46l-4024.3-5.7l-4024.3-3.8l-105.3,40.2C760.1-2650.3,628-2524,561-2380.4l-51.7,109.1l-5.7,1393.7l-5.8,1391.9h4501h4501L9494.1-877.5z"/><path d="M5850.8,87.4c-126.3-42.1-189.5-82.3-275.7-176.1c-118.7-130.2-160.8-237.4-160.8-411.6c0-176.1,42.1-285.3,168.5-419.3c122.5-132.1,245-181.9,440.3-183.8c130.2,0,170.4,7.6,262.3,53.6c118.7,57.4,220.2,158.9,287.2,285.3c36.4,68.9,44,111,44,264.2c0,202.9-28.7,281.4-155.1,421.2C6321.7,74,6044.1,150.6,5850.8,87.4z M6099.6-316.5c67-28.7,124.4-112.9,124.4-183.8s-57.4-155.1-128.3-183.8c-185.7-78.5-358,147.4-233.6,306.3C5931.2-291.7,5996.3-274.4,6099.6-316.5z"/><path d="M7526,60.6C7495.3,30,7189-462,6846.3-1036.4c-488.2-817.5-622.2-1056.8-622.2-1106.6c0-47.9,17.2-82.3,65.1-130.2c70.8-70.8,141.7-84.2,231.6-42.1c70.8,32.5,1330.6,2128.9,1330.6,2215.1C7851.4,83.6,7658.1,179.3,7526,60.6z"/><path d="M1407.2-745.4c-105.3-84.2-113-208.7-19.1-302.5l65.1-65.1h878.8c830.9,0,880.7,1.9,936.2,36.4c120.6,72.8,126.4,237.4,11.5,327.4c-46,36.4-80.4,38.3-940,38.3C1524-710.9,1443.6-714.8,1407.2-745.4z"/><path d="M7870.6-1143.6c-434.6-157-560.9-693-239.3-1012.8c124.4-126.4,239.3-170.4,430.8-172.3c139.8,0,176.1,7.6,260.4,51.7c145.5,76.6,204.9,134,277.6,268c59.4,111,65.1,134,65.1,283.3c-1.9,191.5-46,306.3-172.3,430.8C8335.8-1137.9,8067.8-1072.8,7870.6-1143.6z M8148.2-1545.7c59.3-26.8,124.4-122.5,124.4-180c0-13.4-13.4-51.7-30.6-86.2c-36.4-78.5-139.8-132.1-218.3-114.9c-70.8,15.3-147.4,91.9-162.7,162.7c-17.2,76.6,36.4,181.9,111,218.2C8048.6-1507.4,8069.7-1507.4,8148.2-1545.7z"/><path d="M1443.6-1543.7c-63.2-26.8-120.6-113-120.6-181.9c0-70.8,57.4-155.1,124.4-183.8c55.5-23,306.3-26.8,1514.4-26.8c1604.4,0,1543.1-3.8,1604.4,124.4c17.2,34.5,30.6,72.8,30.6,86.2c0,13.4-13.4,51.7-30.6,86.2c-61.3,130.2,1.9,124.4-1610.1,124.4C1763.3-1516.9,1493.3-1520.8,1443.6-1543.7z"/></g></g>
</svg>